<svg width="1324.22" height="235.695" viewBox="0 0 1324.22 235.695" xmlns="http://www.w3.org/2000/svg"><g id="svgGroup" stroke-linecap="round" fill-rule="evenodd" font-size="9pt" stroke="#ffffff" stroke-width="0.25mm" fill="#ffffff" style="stroke:#ffffff;stroke-width:0.25mm;fill:#ffffff"><path d="M 757.471 66.798 L 757.471 109.718 L 722.168 109.718 L 722.168 232.765 L 664.893 232.765 L 664.893 109.718 L 642.92 109.718 L 642.92 81.593 L 666.064 67.53 L 666.064 64.747 A 133.652 133.652 0 0 1 666.74 50.886 Q 667.464 43.95 668.968 38.103 A 60.452 60.452 0 0 1 671.777 29.664 A 38.581 38.581 0 0 1 689.941 9.669 Q 702.393 3.223 722.461 3.223 A 140.671 140.671 0 0 1 734.747 3.736 A 105.854 105.854 0 0 1 745.825 5.274 A 165.338 165.338 0 0 1 759.289 8.524 A 198.296 198.296 0 0 1 767.725 11.134 L 755.42 48.194 A 83.455 83.455 0 0 0 750.934 47.096 A 109.263 109.263 0 0 0 745.972 46.143 A 62.557 62.557 0 0 0 739.157 45.388 A 76.135 76.135 0 0 0 734.766 45.265 A 17.022 17.022 0 0 0 731.168 45.62 Q 728.925 46.105 727.274 47.254 A 9.064 9.064 0 0 0 725.171 49.293 Q 722.455 52.935 722.195 60.711 A 50.676 50.676 0 0 0 722.168 62.403 L 722.168 66.798 L 757.471 66.798 Z M 0 18.604 L 74.121 18.604 A 149.431 149.431 0 0 1 96.499 20.167 Q 108.112 21.93 117.43 25.683 A 61.625 61.625 0 0 1 135.132 36.329 A 57.542 57.542 0 0 1 153.632 68.641 A 86.595 86.595 0 0 1 155.42 86.72 A 94.499 94.499 0 0 1 151.245 114.845 Q 147.07 128.321 137.622 138.868 Q 128.174 149.415 112.573 155.567 A 80.958 80.958 0 0 1 97.535 159.773 Q 86.975 161.72 74.121 161.72 L 57.861 161.72 L 57.861 232.765 L 0 232.765 L 0 18.604 Z M 627.1 184.718 L 627.1 226.466 Q 617.725 230.567 607.251 233.131 A 77.259 77.259 0 0 1 598.779 234.668 Q 590.807 235.694 580.518 235.694 A 87.478 87.478 0 0 1 566.248 234.584 A 65.058 65.058 0 0 1 552.1 230.64 A 37.346 37.346 0 0 1 533.87 214.622 A 47.19 47.19 0 0 1 532.983 213.062 A 48.004 48.004 0 0 1 528.833 202.279 Q 526.172 192.133 526.172 178.126 L 526.172 109.718 L 506.104 109.718 L 506.104 86.427 L 531.592 68.409 L 546.387 33.546 L 583.887 33.546 L 583.887 66.798 L 624.609 66.798 L 624.609 109.718 L 583.887 109.718 L 583.887 174.317 A 25.164 25.164 0 0 0 584.277 178.906 Q 585.152 183.617 587.988 186.402 A 13.483 13.483 0 0 0 594.184 189.816 Q 596.257 190.354 598.706 190.421 A 25.792 25.792 0 0 0 599.414 190.431 A 65.057 65.057 0 0 0 607.676 189.928 A 51.47 51.47 0 0 0 613.623 188.819 A 138.652 138.652 0 0 0 621.909 186.462 A 164.914 164.914 0 0 0 627.1 184.718 Z M 494.971 65.626 L 489.844 119.679 A 34.441 34.441 0 0 0 487.74 119.201 Q 486.645 118.985 485.376 118.794 A 80.664 80.664 0 0 0 482.666 118.433 Q 478.271 117.921 470.361 117.921 Q 464.941 117.921 458.789 118.946 A 33.01 33.01 0 0 0 447.144 123.267 A 22.606 22.606 0 0 0 440.785 129.044 A 29.923 29.923 0 0 0 438.135 133.228 Q 435.556 138.117 434.869 145.487 A 61.332 61.332 0 0 0 434.619 151.173 L 434.619 232.765 L 377.344 232.765 L 377.344 66.798 L 419.971 66.798 L 428.906 93.311 L 431.689 93.311 A 60.482 60.482 0 0 1 443.335 78.443 A 57.328 57.328 0 0 1 459.302 67.823 A 44.309 44.309 0 0 1 477.539 63.868 A 74.171 74.171 0 0 1 484.739 64.231 A 86 86 0 0 1 487.354 64.527 A 370.081 370.081 0 0 1 489.752 64.843 Q 493.103 65.296 494.971 65.626 Z M 1028.467 4.835 L 1028.467 232.765 L 971.191 232.765 L 971.191 4.835 L 1028.467 4.835 Z M 344.678 149.415 Q 344.678 170.216 338.965 186.329 A 77.238 77.238 0 0 1 330.098 204.063 A 66.797 66.797 0 0 1 322.412 213.429 Q 311.572 224.415 296.191 230.055 A 90.717 90.717 0 0 1 276.532 234.763 A 117.485 117.485 0 0 1 261.475 235.694 A 100.505 100.505 0 0 1 241.137 233.706 A 84.708 84.708 0 0 1 228.442 230.055 A 73.616 73.616 0 0 1 202.295 213.429 A 72.066 72.066 0 0 1 187.65 192.428 A 86.366 86.366 0 0 1 185.083 186.329 A 92.021 92.021 0 0 1 180.167 166.718 A 123.232 123.232 0 0 1 179.004 149.415 A 125.761 125.761 0 0 1 180.66 128.442 Q 183.08 114.14 189.038 102.833 A 68.02 68.02 0 0 1 217.749 73.829 A 82.305 82.305 0 0 1 241.768 65.641 A 113.874 113.874 0 0 1 262.354 63.868 A 97.789 97.789 0 0 1 286.234 66.679 A 81.049 81.049 0 0 1 304.834 73.829 A 71.73 71.73 0 0 1 334.058 102.833 A 80.21 80.21 0 0 1 342.344 125.464 Q 344.386 135.126 344.641 146.217 A 139.015 139.015 0 0 1 344.678 149.415 Z M 938.525 149.415 Q 938.525 170.216 932.813 186.329 A 77.238 77.238 0 0 1 923.946 204.063 A 66.797 66.797 0 0 1 916.26 213.429 Q 905.42 224.415 890.039 230.055 A 90.717 90.717 0 0 1 870.38 234.763 A 117.485 117.485 0 0 1 855.322 235.694 A 100.505 100.505 0 0 1 834.985 233.706 A 84.708 84.708 0 0 1 822.29 230.055 A 73.616 73.616 0 0 1 796.143 213.429 A 72.066 72.066 0 0 1 781.498 192.428 A 86.366 86.366 0 0 1 778.931 186.329 A 92.021 92.021 0 0 1 774.015 166.718 A 123.232 123.232 0 0 1 772.852 149.415 A 125.761 125.761 0 0 1 774.508 128.442 Q 776.928 114.14 782.886 102.833 A 68.02 68.02 0 0 1 811.597 73.829 A 82.305 82.305 0 0 1 835.615 65.641 A 113.874 113.874 0 0 1 856.201 63.868 A 97.789 97.789 0 0 1 880.082 66.679 A 81.049 81.049 0 0 1 898.682 73.829 A 71.73 71.73 0 0 1 927.905 102.833 A 80.21 80.21 0 0 1 936.192 125.464 Q 938.234 135.126 938.489 146.217 A 139.015 139.015 0 0 1 938.525 149.415 Z M 1324.219 149.415 Q 1324.219 170.216 1318.506 186.329 A 77.238 77.238 0 0 1 1309.639 204.063 A 66.797 66.797 0 0 1 1301.953 213.429 Q 1291.113 224.415 1275.732 230.055 A 90.717 90.717 0 0 1 1256.073 234.763 A 117.485 117.485 0 0 1 1241.016 235.694 A 100.505 100.505 0 0 1 1220.678 233.706 A 84.708 84.708 0 0 1 1207.983 230.055 A 73.616 73.616 0 0 1 1181.836 213.429 A 72.066 72.066 0 0 1 1167.191 192.428 A 86.366 86.366 0 0 1 1164.624 186.329 A 92.021 92.021 0 0 1 1159.708 166.718 A 123.232 123.232 0 0 1 1158.545 149.415 A 125.761 125.761 0 0 1 1160.201 128.442 Q 1162.621 114.14 1168.579 102.833 A 68.02 68.02 0 0 1 1197.29 73.829 A 82.305 82.305 0 0 1 1221.309 65.641 A 113.874 113.874 0 0 1 1241.895 63.868 A 97.789 97.789 0 0 1 1265.775 66.679 A 81.049 81.049 0 0 1 1284.375 73.829 A 71.73 71.73 0 0 1 1313.599 102.833 A 80.21 80.21 0 0 1 1321.885 125.464 Q 1323.927 135.126 1324.182 146.217 A 139.015 139.015 0 0 1 1324.219 149.415 Z M 1068.457 66.798 L 1125.732 66.798 L 1125.732 232.765 L 1068.457 232.765 L 1068.457 66.798 Z M 237.158 149.415 A 135.294 135.294 0 0 0 237.508 159.443 Q 237.873 164.339 238.618 168.553 A 65.38 65.38 0 0 0 239.648 173.365 A 40.624 40.624 0 0 0 241.826 179.761 Q 244.113 184.922 247.632 188.16 A 18.732 18.732 0 0 0 256.935 192.745 A 26.73 26.73 0 0 0 262.061 193.214 A 25.633 25.633 0 0 0 268.01 192.561 A 17.572 17.572 0 0 0 276.27 188.16 A 23.294 23.294 0 0 0 280.586 182.392 Q 282.676 178.54 283.96 173.365 Q 285.805 165.931 286.241 155.894 A 149.15 149.15 0 0 0 286.377 149.415 A 138.361 138.361 0 0 0 286.044 139.515 Q 285.48 131.673 283.96 125.684 A 39.623 39.623 0 0 0 281.952 119.692 Q 280.548 116.448 278.65 113.992 A 20.348 20.348 0 0 0 276.196 111.329 A 18.022 18.022 0 0 0 268.293 107.233 Q 265.315 106.495 261.768 106.495 A 24.396 24.396 0 0 0 253.91 107.69 Q 246.809 110.094 242.944 117.335 A 39.865 39.865 0 0 0 239.71 125.792 Q 237.517 133.972 237.209 145.539 A 145.512 145.512 0 0 0 237.158 149.415 Z M 831.006 149.415 A 135.294 135.294 0 0 0 831.356 159.443 Q 831.721 164.339 832.466 168.553 A 65.38 65.38 0 0 0 833.496 173.365 A 40.624 40.624 0 0 0 835.674 179.761 Q 837.96 184.922 841.479 188.16 A 18.732 18.732 0 0 0 850.783 192.745 A 26.73 26.73 0 0 0 855.908 193.214 A 25.633 25.633 0 0 0 861.858 192.561 A 17.572 17.572 0 0 0 870.117 188.16 A 23.294 23.294 0 0 0 874.433 182.392 Q 876.524 178.54 877.808 173.365 Q 879.652 165.931 880.089 155.894 A 149.15 149.15 0 0 0 880.225 149.415 A 138.361 138.361 0 0 0 879.892 139.515 Q 879.328 131.673 877.808 125.684 A 39.623 39.623 0 0 0 875.8 119.692 Q 874.395 116.448 872.498 113.992 A 20.348 20.348 0 0 0 870.044 111.329 A 18.022 18.022 0 0 0 862.141 107.233 Q 859.163 106.495 855.615 106.495 A 24.396 24.396 0 0 0 847.757 107.69 Q 840.657 110.094 836.792 117.335 A 39.865 39.865 0 0 0 833.557 125.792 Q 831.365 133.972 831.056 145.539 A 145.512 145.512 0 0 0 831.006 149.415 Z M 1216.699 149.415 A 135.294 135.294 0 0 0 1217.049 159.443 Q 1217.414 164.339 1218.159 168.553 A 65.38 65.38 0 0 0 1219.189 173.365 A 40.624 40.624 0 0 0 1221.367 179.761 Q 1223.654 184.922 1227.173 188.16 A 18.732 18.732 0 0 0 1236.476 192.745 A 26.73 26.73 0 0 0 1241.602 193.214 A 25.633 25.633 0 0 0 1247.551 192.561 A 17.572 17.572 0 0 0 1255.811 188.16 A 23.294 23.294 0 0 0 1260.127 182.392 Q 1262.217 178.54 1263.501 173.365 Q 1265.346 165.931 1265.782 155.894 A 149.15 149.15 0 0 0 1265.918 149.415 A 138.361 138.361 0 0 0 1265.585 139.515 Q 1265.021 131.673 1263.501 125.684 A 39.623 39.623 0 0 0 1261.493 119.692 Q 1260.089 116.448 1258.191 113.992 A 20.348 20.348 0 0 0 1255.737 111.329 A 18.022 18.022 0 0 0 1247.834 107.233 Q 1244.856 106.495 1241.309 106.495 A 24.396 24.396 0 0 0 1233.451 107.69 Q 1226.35 110.094 1222.485 117.335 A 39.865 39.865 0 0 0 1219.251 125.792 Q 1217.058 133.972 1216.75 145.539 A 145.512 145.512 0 0 0 1216.699 149.415 Z M 1108.158 1.127 A 49.969 49.969 0 0 0 1097.314 0.001 A 51.725 51.725 0 0 0 1087.35 0.913 A 37.002 37.002 0 0 0 1075.854 5.128 A 15.546 15.546 0 0 0 1069.758 11.623 Q 1068.268 14.507 1067.581 18.306 A 40.464 40.464 0 0 0 1066.992 25.489 Q 1066.992 40.284 1075.854 45.484 A 36.674 36.674 0 0 0 1087.35 49.759 A 51.018 51.018 0 0 0 1097.314 50.684 A 51.655 51.655 0 0 0 1105.05 50.125 A 39.488 39.488 0 0 0 1118.774 45.484 A 16.022 16.022 0 0 0 1124.776 39.551 Q 1126.502 36.607 1127.284 32.672 A 36.96 36.96 0 0 0 1127.93 25.489 A 43.335 43.335 0 0 0 1127.703 20.948 Q 1127.3 17.124 1126.177 14.094 A 16.354 16.354 0 0 0 1118.774 5.128 A 38.796 38.796 0 0 0 1108.158 1.127 Z M 72.803 65.333 L 57.861 65.333 L 57.861 114.552 L 69.287 114.552 A 38.367 38.367 0 0 0 79.916 113.11 A 35.014 35.014 0 0 0 83.203 111.988 A 21.93 21.93 0 0 0 93.53 103.639 Q 96.765 98.817 97.304 91.299 A 43.564 43.564 0 0 0 97.412 88.184 A 27.74 27.74 0 0 0 96.43 80.622 A 21.202 21.202 0 0 0 91.406 71.705 Q 85.4 65.333 72.803 65.333 Z" vector-effect="non-scaling-stroke"/></g></svg>