<svg width="180" height="41" viewBox="0 0 180 41" fill="none" xmlns="http://www.w3.org/2000/svg">
<path d="M0 0.728001V39.928H14.464V20.328L19.136 39.928H28.656L33.328 20.328V39.928H47.792V0.728001H37.184L28.656 26.408L20.128 0.728001H9.52001V39.928H0.728001V0.728001Z" fill="white"/>
<path d="M58 0.728001V39.928H69.632V0.728001H58Z" fill="white"/>
<path d="M81.008 0.728001L71.36 39.928H84.048L86.864 29.368H101.04L103.856 39.928H116.544L106.896 0.728001H94.016L91.2 11.944H96.864L89.68 39.928H98.224L105.408 11.944H111.072L108.256 0.728001H95.376H81.008Z" fill="white"/>
<path d="M127.904 0.728001V39.928H139.536V0.728001H127.904ZM127.904 47.792C127.904 50.024 129.792 51.912 132.024 51.912C134.256 51.912 136.144 50.024 136.144 47.792C136.144 45.56 134.256 43.672 132.024 43.672C129.792 43.672 127.904 45.56 127.904 47.792Z" fill="white"/>
</svg>
